<svg width="32" height="35" viewBox="0 0 32 35" fill="none" xmlns="http://www.w3.org/2000/svg">
<path d="M27.5211 19.2062C27.5813 18.6594 27.6213 18.0906 27.6213 17.5C27.6213 16.9094 27.5813 16.3406 27.5011 15.7937L30.8892 12.9062C31.1899 12.6437 31.2701 12.1625 31.0897 11.7906L27.882 5.73125C27.6815 5.3375 27.2605 5.20625 26.8996 5.3375L22.9101 7.0875C22.068 6.3875 21.1859 5.81875 20.2036 5.38125L19.6021 0.74375C19.542 0.30625 19.2012 0 18.8002 0H12.3849C11.9839 0 11.6631 0.30625 11.603 0.74375L11.0015 5.38125C10.0192 5.81875 9.11703 6.40937 8.29506 7.0875L4.3055 5.3375C3.94464 5.18437 3.52363 5.3375 3.32315 5.73125L0.115467 11.7906C-0.0850129 12.1844 -0.00482057 12.6437 0.315948 12.9062L3.70406 15.7937C3.62387 16.3406 3.56373 16.9312 3.56373 17.5C3.56373 18.0687 3.60382 18.6594 3.68401 19.2062L0.295899 22.0937C-0.00482105 22.3562 -0.0850129 22.8375 0.0954193 23.2094L3.3031 29.2687C3.50358 29.6625 3.92459 29.7937 4.28546 29.6625L8.27501 27.9125C9.11703 28.6125 9.99914 29.1812 10.9815 29.6187L11.5829 34.2562C11.6631 34.6937 11.9839 35 12.3849 35H18.8002C19.2012 35 19.542 34.6937 19.5821 34.2562L20.1835 29.6187C21.1659 29.1812 22.068 28.5906 22.89 27.9125L26.8796 29.6625C27.2404 29.8156 27.6614 29.6625 27.8619 29.2687L31.0696 23.2094C31.2701 22.8156 31.1899 22.3562 30.8691 22.0937L27.5211 19.2062ZM15.5925 24.0625C12.2846 24.0625 9.57813 21.1094 9.57813 17.5C9.57813 13.8906 12.2846 10.9375 15.5925 10.9375C18.9005 10.9375 21.6069 13.8906 21.6069 17.5C21.6069 21.1094 18.9005 24.0625 15.5925 24.0625Z" fill="white"/>
</svg>
