<svg width="26" height="26" viewBox="0 0 26 26" fill="none" xmlns="http://www.w3.org/2000/svg">
<path d="M9.83331 2.61112C9.05554 2.3889 7.83333 2.16668 6.94445 2.16668C6.05556 2.16668 4.83335 2.3889 4.05558 2.61112C3.27781 2.72223 2.72226 3.27778 2.61115 4.05555C2.38893 4.83332 2.16671 6.05553 2.16671 6.94441C2.16671 7.8333 2.38893 9.05551 2.50004 9.83328C2.61115 10.611 3.27781 11.1666 3.94447 11.2777C4.72224 11.3888 5.94445 11.611 6.83333 11.611C7.72222 11.611 8.94443 11.3888 9.7222 11.2777C10.5 11.1666 11.0555 10.4999 11.1666 9.83328C11.2777 9.05551 11.5 7.8333 11.5 6.94441C11.5 6.05553 11.2777 4.83332 11.1666 4.05555C11.1666 3.27778 10.6111 2.72223 9.83331 2.61112Z" fill="#073A85"/>
<path d="M9.83326 14.8333C9.05548 14.7222 7.83327 14.5 6.94439 14.5C6.05551 14.5 4.8333 14.7222 4.05553 14.8333C3.27776 14.9444 2.7222 15.6111 2.61109 16.2777C2.49998 17.0555 2.27776 18.2777 2.27776 19.1666C2.27776 20.0555 2.49998 21.2777 2.61109 22.0555C2.7222 22.8332 3.38887 23.3888 4.05553 23.4999C4.8333 23.611 6.05551 23.8332 6.94439 23.8332C7.83327 23.8332 9.05548 23.611 9.83326 23.4999C10.611 23.3888 11.1666 22.7221 11.2777 22.0555C11.3888 21.2777 11.611 20.0555 11.611 19.1666C11.611 18.2777 11.3888 17.0555 11.2777 16.2777C11.1666 15.5 10.611 14.9444 9.83326 14.8333Z" fill="#073A85"/>
<path d="M16.2776 11.2779C17.0554 11.389 18.2776 11.6113 19.1665 11.6113C20.0554 11.6113 21.2776 11.389 22.0554 11.2779C22.8331 11.1668 23.3887 10.5001 23.4998 9.83349C23.6109 9.05572 23.8331 7.8335 23.8331 6.94462C23.8331 6.05574 23.6109 4.83353 23.4998 4.05576C23.3887 3.27799 22.722 2.72244 22.0554 2.61133C21.2776 2.50022 20.0554 2.278 19.1665 2.278C18.2776 2.278 17.0554 2.50022 16.2776 2.61133C15.4999 2.72244 14.9443 3.3891 14.8332 4.05576C14.7221 4.83353 14.4999 6.05574 14.4999 6.94462C14.4999 7.8335 14.7221 9.05572 14.8332 9.83349C14.9443 10.6113 15.4999 11.1668 16.2776 11.2779Z" fill="#073A85"/>
<path d="M22.0554 14.8333C21.2776 14.7222 20.0554 14.5 19.1665 14.5C18.2776 14.5 17.0554 14.7222 16.2776 14.8333C15.4999 14.9444 14.9443 15.6111 14.8332 16.2777C14.7221 17.0555 14.4999 18.2777 14.4999 19.1666C14.4999 20.0555 14.7221 21.2777 14.8332 22.0555C14.9443 22.8332 15.611 23.3888 16.2776 23.4999C17.0554 23.611 18.2776 23.8332 19.1665 23.8332C20.0554 23.8332 21.2776 23.611 22.0554 23.4999C22.8331 23.3888 23.3887 22.7221 23.4998 22.0555C23.6109 21.2777 23.8331 20.0555 23.8331 19.1666C23.8331 18.2777 23.6109 17.0555 23.4998 16.2777C23.3887 15.5 22.8331 14.9444 22.0554 14.8333Z" fill="#073A85"/>
</svg>
