<svg width="15" height="15" viewBox="0 0 15 15" fill="none" xmlns="http://www.w3.org/2000/svg">
<path d="M7.70309 8.88891C7.64356 8.88891 7.5849 8.88583 7.52676 8.87987L6.61809 9.89543C7.16462 10.1294 7.76007 10.1813 8.33246 10.0451C8.90485 9.90886 9.42968 9.59023 9.8435 9.12772C10.2573 8.66522 10.5424 8.07865 10.6643 7.43891C10.7862 6.79918 10.7397 6.13368 10.5304 5.52286L9.62174 6.53842C9.62707 6.60341 9.62982 6.66897 9.62982 6.7355C9.62996 7.01833 9.58021 7.29842 9.48344 7.55975C9.38666 7.82108 9.24474 8.05853 9.0658 8.25853C8.88686 8.45852 8.6744 8.61713 8.44058 8.7253C8.20675 8.83346 7.95615 8.88906 7.70309 8.88891Z" fill="white"/>
<path d="M14.9008 7.03062C14.2961 5.60668 13.5764 4.44537 12.7418 3.54671L11.8665 4.52497C12.5803 5.28732 13.202 6.28462 13.7396 7.52667C12.3083 10.8375 10.2766 12.4103 7.50007 12.4103C6.66664 12.4103 5.89899 12.2669 5.1971 11.98L4.2487 13.04C5.22354 13.5431 6.30733 13.7946 7.50007 13.7946C10.8065 13.7946 13.2734 11.87 14.9008 8.02081C14.9662 7.866 15.0002 7.69692 15.0002 7.52571C15.0002 7.35451 14.9662 7.18543 14.9008 7.03062ZM13.8072 0.865715L13.0738 0.0451118C13.0611 0.0308107 13.0459 0.0194655 13.0292 0.0117249C13.0125 0.00398425 12.9946 0 12.9765 0C12.9584 0 12.9405 0.00398425 12.9238 0.0117249C12.9071 0.0194655 12.8919 0.0308107 12.8791 0.0451118L10.9976 2.14699C9.96027 1.55481 8.79442 1.25871 7.50007 1.25871C4.19365 1.25871 1.72674 3.18332 0.0993392 7.03254C0.0339254 7.18735 0 7.35643 0 7.52764C0 7.69884 0.0339254 7.86792 0.0993392 8.02273C0.749498 9.55319 1.53223 10.7799 2.44755 11.7029L0.627127 13.737C0.601337 13.7658 0.58685 13.8049 0.58685 13.8457C0.58685 13.8865 0.601337 13.9256 0.627127 13.9544L1.36152 14.7752C1.38733 14.804 1.42232 14.8202 1.45881 14.8202C1.49529 14.8202 1.53028 14.804 1.55609 14.7752L13.8072 1.08336C13.82 1.06908 13.8301 1.05211 13.8371 1.03344C13.844 1.01477 13.8476 0.994753 13.8476 0.974539C13.8476 0.954325 13.844 0.93431 13.8371 0.915637C13.8301 0.896964 13.82 0.88 13.8072 0.865715ZM1.26054 7.52667C2.69355 4.21581 4.72522 2.64305 7.50007 2.64305C8.43832 2.64305 9.29142 2.82301 10.0654 3.1889L8.85601 4.54055C8.28327 4.19901 7.62747 4.07225 6.98536 4.17898C6.34326 4.28571 5.74884 4.62026 5.28981 5.1333C4.83078 5.64633 4.53144 6.31068 4.43595 7.02832C4.34046 7.74597 4.45387 8.47892 4.75946 9.11904L3.32438 10.723C2.53012 9.93946 1.84544 8.87794 1.26054 7.52667ZM5.50452 7.52667C5.50482 7.18764 5.57667 6.85346 5.71424 6.55129C5.85181 6.24912 6.05122 5.98748 6.29626 5.78762C6.5413 5.58776 6.82506 5.45533 7.1245 5.40107C7.42394 5.34681 7.73061 5.37227 8.0196 5.47536L5.59587 8.18423C5.53512 7.97166 5.5043 7.74983 5.50452 7.52667Z" fill="white"/>
</svg>
