<svg width="40" height="40" viewBox="0 0 40 40" fill="none" xmlns="http://www.w3.org/2000/svg">
<g clip-path="url(#clip0_32_254)">
<path d="M39.9998 19.9999C40.0034 22.7073 39.4554 25.387 38.3892 27.8756L38.3229 28.0283C36.5194 32.1312 33.3922 35.5108 29.4413 37.6267C25.4904 39.7426 20.9442 40.4725 16.5295 39.6998C16.4094 39.6785 16.2895 39.6564 16.1697 39.6335C14.9327 39.3937 13.7213 39.0365 12.552 38.5667C12.3621 38.4904 12.1735 38.4113 11.9863 38.3294C11.8585 38.2738 11.7307 38.2164 11.6041 38.1572C8.14016 36.5518 5.20738 33.9896 3.15142 30.7725C1.09547 27.5555 0.00203352 23.8178 0 19.9999C0 8.9544 8.9544 0 19.9999 0C31.0454 0 39.9998 8.9544 39.9998 19.9999Z" fill="#073A85"/>
<path opacity="0.2" d="M16.5292 39.6998C16.4091 39.6785 16.2892 39.6564 16.1695 39.6335C16.0914 37.3666 15.8233 32.714 14.9091 27.8412C14.4091 25.1744 13.715 22.4407 12.7523 19.9969C12.4225 19.1513 12.0458 18.3248 11.6239 17.5212C10.6512 15.6839 9.47128 14.1372 8.04052 13.0892L8.25117 12.8017C9.44111 13.6739 10.5105 14.8983 11.4594 16.475C11.7441 16.9472 12.0174 17.451 12.2796 17.9863C12.5606 18.559 12.8287 19.1671 13.0837 19.8105C13.2464 20.22 13.4036 20.6436 13.5553 21.0815C14.2156 22.9827 14.777 25.1519 15.2393 27.5892C15.3417 28.1276 15.4391 28.6793 15.5316 29.2442C16.2482 33.6211 16.4641 37.6678 16.5292 39.6998Z" fill="black"/>
<path opacity="0.2" d="M11.9862 38.3294C11.8584 38.2738 11.7306 38.2164 11.604 38.1572C11.4803 36.814 11.2531 35.1478 10.8377 33.5661C10.6558 32.8558 10.4222 32.1596 10.1389 31.4833C9.66494 30.3738 9.05133 29.4306 8.25785 28.849L8.4685 28.562C9.29926 29.1703 9.94008 30.1318 10.4353 31.2567C10.9933 32.5241 11.3655 33.9993 11.6134 35.4087C11.7975 36.4555 11.9134 37.4667 11.9862 38.3294Z" fill="black"/>
<path opacity="0.2" d="M6.05083 13.081C7.03411 13.081 7.83121 12.2839 7.83121 11.3006C7.83121 10.3174 7.03411 9.52025 6.05083 9.52025C5.06756 9.52025 4.27045 10.3174 4.27045 11.3006C4.27045 12.2839 5.06756 13.081 6.05083 13.081Z" fill="black"/>
<path opacity="0.2" d="M6.62432 28.4069C7.60759 28.4069 8.4047 27.6098 8.4047 26.6265C8.4047 25.6432 7.60759 24.8461 6.62432 24.8461C5.64104 24.8461 4.84394 25.6432 4.84394 26.6265C4.84394 27.6098 5.64104 28.4069 6.62432 28.4069Z" fill="black"/>
<path opacity="0.2" d="M13.119 14.2911C12.7414 16.4211 13.5749 18.3498 13.5749 18.3498C13.5749 18.3498 15.0204 16.8251 15.398 14.6951C15.7755 12.5651 14.9421 10.6364 14.9421 10.6364C14.9421 10.6364 13.4965 12.1611 13.119 14.2911Z" fill="black"/>
<path opacity="0.2" d="M7.20229 19.3472C9.23393 20.0901 11.2755 19.6134 11.2755 19.6134C11.2755 19.6134 10.023 17.9322 7.99138 17.1893C5.95974 16.4464 3.91822 16.9231 3.91822 16.9231C3.91822 16.9231 5.17065 18.6043 7.20229 19.3472Z" fill="black"/>
<path opacity="0.2" d="M6.85778 32.9189C8.2818 33.4397 9.71476 33.1 9.71476 33.1C9.71476 33.1 8.83893 31.9161 7.41491 31.3953C5.99089 30.8746 4.55793 31.2143 4.55793 31.2143C4.55793 31.2143 5.43376 32.3982 6.85778 32.9189Z" fill="black"/>
<path d="M19.9589 24.4288C24.265 24.4288 27.7559 20.938 27.7559 16.6318C27.7559 12.3256 24.265 8.83476 19.9589 8.83476C15.6527 8.83476 12.1618 12.3256 12.1618 16.6318C12.1618 20.938 15.6527 24.4288 19.9589 24.4288Z" fill="#D9D9D9"/>
<path d="M16.9131 22.6013C16.9131 22.6013 17.8877 27.2308 17.8877 27.7181C17.8877 28.2054 22.5172 30.3984 22.5172 30.3984L26.6593 29.6674L28.1213 25.2816C28.1213 25.2816 25.6847 21.6267 25.6847 20.1648L16.9131 22.6013Z" fill="#D9D9D9"/>
<path d="M38.3892 27.8756L38.3229 28.0283C36.5194 32.1311 33.3922 35.5108 29.4413 37.6267C25.4905 39.7426 20.9442 40.4725 16.5295 39.6998C16.4094 39.6785 16.2895 39.6564 16.1698 39.6335C14.9327 39.3937 13.7213 39.0365 12.552 38.5667C12.3621 38.4903 12.1735 38.4112 11.9863 38.3294C11.8585 38.2738 11.7307 38.2164 11.6041 38.1572C10.4563 37.6255 9.36168 36.9859 8.33488 36.2471L7.41062 33.5661L7.93015 33.1697L8.99878 32.3537L10.139 31.4833L10.4355 31.2566L14.9094 27.8413L15.2396 27.5892L17.565 25.8141L17.5656 25.8135C17.5656 25.8135 20.0804 29.9111 23.7354 28.6928C27.3904 27.4744 27.3105 23.981 27.3105 23.981L38.3892 27.8756Z" fill="black"/>
<path d="M13.1974 10.35C13.1974 10.35 15.6729 4.98638 20.4177 6.22414C25.1624 7.46191 27.8443 9.31855 28.0505 11.1752C28.2568 13.0318 27.9474 15.8168 27.9474 15.8168C27.9474 15.8168 27.4317 12.0004 24.131 12.8255C20.8303 13.6507 15.6729 13.0318 15.6729 13.0318L14.8478 20.4584C14.8478 20.4584 13.9194 19.1175 12.888 19.9427C11.8565 20.7678 9.89672 12.0004 13.1974 10.35Z" fill="black"/>
<path d="M12.5519 38.5667C12.3619 38.4904 12.1734 38.4113 11.9862 38.3294C11.8584 38.2738 11.7306 38.2164 11.604 38.1572C9.70568 37.277 7.95691 36.105 6.42113 34.6839C6.96492 33.9431 7.41048 33.5661 7.41048 33.5661H11.0655L11.6134 35.4087L12.5519 38.5667Z" fill="black"/>
<path d="M35.1873 27.4745L38.3228 28.0283C37.4837 29.9398 36.3505 31.7082 34.9642 33.2691L35.1873 27.4745Z" fill="black"/>
</g>
<defs>
<clipPath id="clip0_32_254">
<rect width="39.8128" height="39.8128" fill="white" transform="scale(1.0047)"/>
</clipPath>
</defs>
</svg>
