<svg width="12" height="21" viewBox="0 0 12 21" fill="none" xmlns="http://www.w3.org/2000/svg">
<path d="M9.07941 19.2476L9.0798 19.248C9.63359 19.8004 10.5298 19.7998 11.0839 19.2485L11.0843 19.248C11.6386 18.6952 11.6386 17.7973 11.0843 17.2444L3.9188 10.0815L11.0834 2.91861C11.0835 2.91857 11.0835 2.91853 11.0835 2.91849C11.6379 2.36539 11.6372 1.46791 11.0839 0.914555L11.0834 0.914108C10.5299 0.361964 9.63244 0.361964 9.07889 0.914108L9.07851 0.914494L0.911051 9.07916L0.910539 9.07967C0.36324 9.62838 0.362555 10.5345 0.912076 11.083C0.912155 11.0831 0.912233 11.0832 0.912311 11.0832L9.07941 19.2476Z" fill="black" stroke="black"/>
</svg>
